<svg width="1200" height="320" viewBox="0 0 1200 320" xmlns="http://www.w3.org/2000/svg">
  <defs>
    <style><![CDATA[
      .bg{fill:#02040a}.scanline{opacity:.06}.title{font-family:sans-serif;font-size:52px;letter-spacing:2px;fill:#00fff0;filter:drop-shadow(0 0 8px #00fff0) drop-shadow(0 0 16px #00fff0)}
      .subtitle{font-family:monospace;font-size:16px;fill:#7efcff;opacity:.9}.ring{fill:none;stroke:#0ff;stroke-width:1.2;opacity:.35}
      .glow{filter:drop-shadow(0 0 6px #00e6ff) drop-shadow(0 0 18px #00e6ff)}.chip{fill:none;stroke:#0ff;stroke-width:1;filter:drop-shadow(0 0 4px #00d9ff);opacity:.35}
      .badge{font-family:monospace;font-size:12px;fill:#00121a}.badge-bg{fill:#00fff0;opacity:.9;filter:drop-shadow(0 0 8px #00fff0)}
      .icon text{font-family:monospace;font-size:12px;fill:#001218;font-weight:bold}.orbit{transform-origin:600px 160px;animation:spin 22s linear infinite}
      .orbit.fast{animation-duration:14s}.orbit.medium{animation-duration:22s}.orbit.slow{animation-duration:34s;animation-direction:reverse}
      .spark{fill:#00fff0;filter:blur(2px)}.flicker{animation:flicker 1.2s infinite alternate}
      @keyframes spin{to{transform:rotate(360deg)}}@keyframes flicker{0%{opacity:.5}50%{opacity:1}100%{opacity:.4}}
      svg:hover .spark{transform:scale(1.4);filter:drop-shadow(0 0 12px #00ffff)}
    ]]></style>
    <radialGradient id="vignette" cx="50%" cy="50%" r="70%">
      <stop offset="0%" stop-color="#00131f"/>
      <stop offset="100%" stop-color="#00070d"/>
    </radialGradient>
    <pattern id="scanline" patternUnits="userSpaceOnUse" width="4" height="4">
      <rect width="4" height="1" fill="#00ffff" opacity=".25"/>
    </pattern>
  </defs>

  <rect width="1200" height="320" fill="url(#vignette)"/>
  <rect class="scanline" width="1200" height="320" fill="url(#scanline)"/>

  <rect x="40" y="30" width="1120" height="260" rx="14" class="chip"/>
  <rect x="52" y="42" width="1096" height="236" rx="12" class="chip"/>

  <g transform="translate(600,140)">
    <text text-anchor="middle" class="title glow">SAJIV JESS B I</text>
  </g>
  <g transform="translate(600,172)">
    <text text-anchor="middle" class="subtitle">AI/ML • Web &amp; App • UI/UX • Automation • Edge AI • RAG</text>
  </g>

  <circle cx="600" cy="160" r="60" class="ring"/>
  <circle cx="600" cy="160" r="95" class="ring"/>
  <circle cx="600" cy="160" r="130" class="ring"/>
  <circle cx="600" cy="160" r="165" class="ring"/>

  <g transform="translate(600,160)">
    <circle class="spark flicker" r="3"/>
    <circle class="spark flicker" r="2" transform="rotate(90) translateX(60) rotate(-90)"/>
    <circle class="spark flicker" r="3" transform="rotate(180) translateX(130) rotate(-180)"/>
    <circle class="spark flicker" r="2" transform="rotate(240) translateX(165) rotate(-240)"/>
  </g>

  <g class="orbit fast">
    <g class="icon"><circle cx="600" cy="30" r="14" class="badge-bg"/><text x="592" y="34">Py</text></g>
    <g class="icon"><circle cx="760" cy="100" r="14" class="badge-bg"/><text x="753" y="104">JS</text></g>
    <g class="icon"><circle cx="865" cy="185" r="14" class="badge-bg"/><text x="856" y="189">Rn</text></g>
    <g class="icon"><circle cx="440" cy="265" r="14" class="badge-bg"/><text x="433" y="269">Fl</text></g>
  </g>

  <g class="orbit medium">
    <g class="icon"><circle cx="310" cy="155" r="14" class="badge-bg"/><text x="302" y="159">FA</text></g>
    <g class="icon"><circle cx="520" cy="290" r="14" class="badge-bg"/><text x="511" y="294">DB</text></g>
    <g class="icon"><circle cx="965" cy="120" r="14" class="badge-bg"/><text x="956" y="124">HF</text></g>
    <g class="icon"><circle cx="690" cy="22" r="14" class="badge-bg"/><text x="682" y="26">CV</text></g>
  </g>

  <g class="orbit slow">
    <g class="icon"><circle cx="170" cy="195" r="14" class="badge-bg"/><text x="161" y="199">TF</text></g>
    <g class="icon"><circle cx="230" cy="80" r="14" class="badge-bg"/><text x="222" y="84">AZ</text></g>
    <g class="icon"><circle cx="820" cy="280" r="14" class="badge-bg"/><text x="812" y="284">LLM</text></g>
  </g>

  <g transform="translate(600,210)">
    <g transform="translate(-360,0)"><rect width="120" height="22" rx="6" class="badge-bg"/><text x="10" y="15" class="badge">Python • Flask</text></g>
    <g transform="translate(-210,0)"><rect width="135" height="22" rx="6" class="badge-bg"/><text x="10" y="15" class="badge">FastAPI • React</text></g>
    <g transform="translate(-50,0)"><rect width="165" height="22" rx="6" class="badge-bg"/><text x="10" y="15" class="badge">RAG • FAISS • LLaMA</text></g>
    <g transform="translate(140,0)"><rect width="150" height="22" rx="6" class="badge-bg"/><text x="10" y="15" class="badge">MySQL • Firebase</text></g>
    <g transform="translate(310,0)"><rect width="140" height="22" rx="6" class="badge-bg"/><text x="10" y="15" class="badge">Azure</text></g>
  </g>
</svg>
